<svg width="170" height="46" viewBox="0 0 170 46" fill="none" xmlns="http://www.w3.org/2000/svg">
<path d="M4.23047 18.3203L26.3789 18.2812V25.5078H11.4961V40H4.23047V18.3203ZM8.33203 8.00781H26.3008V15.2734H4.23047L8.33203 8.00781ZM28.4102 8.00781H35.6758V15.2344H28.4102V8.00781ZM35.6758 18.4766V32.8125H42.9023V8.00781H50.1289V32.6953L46.5742 39.9609C43.5273 39.987 40.4935 40 37.4727 40H28.4102V18.4766H35.6758ZM74.3086 8.00781V40H67.1211C65.8971 38.2292 64.6862 36.4323 63.4883 34.6094L59.8555 29.1797V40H52.5898V18.4766H59.8945L67.082 29.1406V8.00781H74.3086ZM52.5898 8.00781H59.8555V15.2344H52.5898V8.00781Z" fill="white"/>
<path d="M94.6546 12.582H84.5746V17.076H79.5346V7.584H103.139V12.624L87.9346 34.044H98.0566V29.508H103.139V39H79.5346V34.002L94.6546 12.582ZM107.999 35.472H109.847V16.362H107.999V12.792H117.365V16.362H115.139V35.472H117.365V39H107.999V35.472ZM123.156 35.472H124.71V27.996H122.232V23.418H124.71V16.362H123.156V12.792H140.964V20.268H136.134V16.95H130.338V23.418H135.294V27.996H130.338V34.842H136.134V30.684H140.964V39H123.156V35.472ZM163.246 34.926L163.078 35.598C162.994 35.99 162.84 36.396 162.616 36.816C162.42 37.208 162.182 37.572 161.902 37.908C161.622 38.216 161.328 38.482 161.02 38.706C160.712 38.902 160.418 39 160.138 39H149.26C148.98 39 148.644 38.902 148.252 38.706C147.86 38.51 147.482 38.258 147.118 37.95C146.754 37.642 146.446 37.292 146.194 36.9C145.942 36.508 145.816 36.102 145.816 35.682V30.684H150.688V34.842H157.996V28.248H148.924C148.616 28.248 148.28 28.164 147.916 27.996C147.58 27.828 147.244 27.604 146.908 27.324C146.6 27.016 146.334 26.666 146.11 26.274C145.914 25.882 145.816 25.448 145.816 24.972V15.312C145.816 15.088 145.886 14.836 146.026 14.556C146.166 14.276 146.404 13.954 146.74 13.59C147.104 13.282 147.384 13.072 147.58 12.96C147.804 12.848 148.098 12.792 148.462 12.792H159.76C160.208 12.792 160.628 12.876 161.02 13.044C161.412 13.212 161.762 13.436 162.07 13.716C162.378 13.996 162.63 14.304 162.826 14.64C163.05 14.948 163.204 15.27 163.288 15.606V20.688H158.122V16.95H150.814V23.292H160.138C160.866 23.376 161.524 23.726 162.112 24.342C162.728 24.93 163.106 25.714 163.246 26.694V34.926Z" fill="#F03B3B"/>
</svg>
