<svg width="144" height="57" viewBox="0 0 144 57" fill="none" xmlns="http://www.w3.org/2000/svg">
<path d="M20.3438 8C22.2604 8.64583 23.2188 9.28646 23.2188 9.92188V10.875C23.2188 11.6667 19.2135 12.4688 11.2031 13.2812C10.8906 15.8333 10.7344 18.875 10.7344 22.4062L23.7031 20.9688C24.3177 21.2917 24.7969 21.4531 25.1406 21.4531V23.375C25.1406 24.625 20.0156 25.5833 9.76562 26.25V31.0625C9.76562 31.6875 10.0885 33.2865 10.7344 35.8594L9.28125 36.8281C7.25 36.8281 6.13021 34.4219 5.92188 29.6094V25.2969L4.96875 23.8438V22.4062C6.25 22.4062 6.89062 21.9271 6.89062 20.9688V20.4844C6.89062 18.8802 7.04688 16.4792 7.35938 13.2812C5.36979 12.6354 4.25 11.8333 4 10.875V9.4375C4.96875 9.4375 6.08854 9.59896 7.35938 9.92188C13.6094 9.27604 17.9375 8.63542 20.3438 8Z" fill="#1F2A36"/>
<path d="M27.9062 20.4844H28.8594L31.2656 20.9688V27.6875C31.2656 30.3542 32.7083 31.9583 35.5938 32.5C38.1562 31.0208 39.4375 28.1354 39.4375 23.8438V20.9688H42.7969L45.2031 32.9844C45.8385 34.0365 46.1562 34.9948 46.1562 35.8594L45.2031 36.3438H43.7656L40.875 32.5C40.875 34.2083 38.7917 35.3281 34.625 35.8594C29.8229 34.1927 27.4219 31.3125 27.4219 27.2188V23.8438L27.9062 20.4844Z" fill="#1F2A36"/>
<path d="M60.3438 19.5312H60.8125C64.1354 19.5312 66.2188 22.8906 67.0625 29.6094V31.0625C67.0625 31.6979 66.5833 32.0156 65.625 32.0156C63.6979 32.0156 62.4167 29.2917 61.7812 23.8438C61.4583 23.8438 61.2969 23.526 61.2969 22.8906H59.375C57.8333 22.8906 56.2344 25.1302 54.5781 29.6094C54.5781 30.8906 54.2552 31.5312 53.6094 31.5312H52.6562C51.875 30.8958 51.2344 30.5781 50.7344 30.5781V29.1406C50.0885 24.4531 49.7656 21.8906 49.7656 21.4531V20.9688C49.7656 20.3229 50.2448 20 51.2031 20C51.6823 20 52.6458 20.8021 54.0938 22.4062C56.0104 20.4896 58.0938 19.5312 60.3438 19.5312Z" fill="#1F2A36"/>
<path d="M72.5469 20.9688H77.3594C83.4427 20.9688 86.4844 21.9271 86.4844 23.8438C86.2552 25.3438 83.2135 28.7083 77.3594 33.9375L79.7656 34.4219H81.2031L86.9688 33.9375L87.4531 36.3438C87.4531 37.625 86.0104 38.2656 83.125 38.2656C76.4583 38.2656 72.4531 37.1458 71.1094 34.9062V33.4531C72.9115 33.0365 75.9531 30.3177 80.2344 25.2969V24.8125H73.5156C73.0156 24.8125 72.375 24.1719 71.5938 22.8906V21.9219C71.6875 21.2865 72.0052 20.9688 72.5469 20.9688Z" fill="#1F2A36"/>
<path d="M92.3594 13.2812C95.2448 13.9167 96.6875 14.5573 96.6875 15.2031V17.125C92.8438 17.125 90.9219 16.4844 90.9219 15.2031V14.2344C90.9219 13.599 91.401 13.2812 92.3594 13.2812ZM91.4062 20.9688H93.3281C94.2865 20.9688 94.9271 24.1719 95.25 30.5781C94.9271 31.8594 94.2865 32.5 93.3281 32.5C92.0469 32.5 91.2448 30.8958 90.9219 27.6875C91.2448 27.1354 91.4062 26.4948 91.4062 25.7656V24.3281C91.4062 23.6094 91.2448 22.9688 90.9219 22.4062C91.2448 21.7917 91.4062 21.3125 91.4062 20.9688Z" fill="#1F2A36"/>
<path d="M110.25 20C112.812 21.9271 114.094 23.6927 114.094 25.2969V26.25C112.167 28.8125 109.604 30.0938 106.406 30.0938V31.0625L108.797 31.5312H110.25C112.604 31.5312 115.167 30.4115 117.938 28.1719H118.406C119.688 28.8385 120.328 29.6406 120.328 30.5781C118.464 33.776 115.26 35.375 110.719 35.375C105.51 35.375 101.828 32.4948 99.6719 26.7344C102.922 22.2448 106.448 20 110.25 20ZM104.953 26.7344H105.922C107.526 26.7344 109.125 25.9323 110.719 24.3281V23.8438L110.25 22.8906C106.719 24.3698 104.953 25.651 104.953 26.7344Z" fill="#1F2A36"/>
<path d="M133.156 20.9688C136.125 21.6042 137.729 22.4062 137.969 23.375C137.969 24.0104 137.646 24.3281 137 24.3281H136.531C134.927 23.599 134.125 23.1198 134.125 22.8906C132.521 23.2969 131.719 23.776 131.719 24.3281C131.719 25.724 133.641 28.125 137.484 31.5312V32.5C136.62 35.6979 134.859 37.2969 132.203 37.2969H131.234C128.797 37.2969 126.078 36.0156 123.078 33.4531L122.109 30.0938H123.078C125.901 32.5938 128.464 34.0365 130.766 34.4219C132.682 33.7656 133.641 33.125 133.641 32.5V32.0156C130.12 29.0677 128.359 26.8281 128.359 25.2969V22.8906C128.359 22.0052 129.958 21.3646 133.156 20.9688Z" fill="#1F2A36"/>
<path d="M52.4916 48.5438C51.5182 48.5438 50.6249 48.3704 49.8116 48.0238C48.9982 47.6771 48.2916 47.1838 47.6916 46.5438C47.0916 45.8904 46.6249 45.1238 46.2916 44.2438C45.9716 43.3638 45.8116 42.3971 45.8116 41.3438C45.8116 40.3438 45.9849 39.4171 46.3316 38.5637C46.6916 37.6971 47.1849 36.9371 47.8116 36.2837C48.4382 35.6304 49.1649 35.1238 49.9916 34.7638C50.8182 34.4037 51.7116 34.2237 52.6716 34.2237C53.3516 34.2237 54.0116 34.3304 54.6516 34.5437C55.3049 34.7437 55.8916 35.0304 56.4116 35.4037C56.9449 35.7637 57.3782 36.1771 57.7116 36.6437L56.2716 38.1437C55.8849 37.7571 55.4916 37.4371 55.0916 37.1838C54.7049 36.9171 54.3049 36.7171 53.8916 36.5837C53.4916 36.4504 53.0849 36.3837 52.6716 36.3837C52.0182 36.3837 51.4049 36.5104 50.8316 36.7637C50.2716 37.0037 49.7782 37.3437 49.3516 37.7838C48.9382 38.2238 48.6116 38.7504 48.3716 39.3637C48.1316 39.9637 48.0116 40.6238 48.0116 41.3438C48.0116 42.1038 48.1249 42.7971 48.3516 43.4237C48.5916 44.0371 48.9249 44.5637 49.3516 45.0037C49.7782 45.4437 50.2849 45.7838 50.8716 46.0238C51.4716 46.2504 52.1316 46.3638 52.8516 46.3638C53.2916 46.3638 53.7249 46.3038 54.1516 46.1838C54.5782 46.0638 54.9782 45.8904 55.3516 45.6637C55.7249 45.4371 56.0649 45.1704 56.3716 44.8638L57.4516 46.6237C57.1449 46.9837 56.7249 47.3104 56.1916 47.6037C55.6716 47.8971 55.0849 48.1304 54.4316 48.3037C53.7916 48.4637 53.1449 48.5438 52.4916 48.5438Z" fill="#EE4444"/>
<path d="M64.5858 48.5438C63.5591 48.5438 62.6391 48.3104 61.8258 47.8438C61.0258 47.3637 60.3924 46.7171 59.9258 45.9038C59.4591 45.0771 59.2258 44.1371 59.2258 43.0837C59.2258 42.0304 59.4591 41.0971 59.9258 40.2837C60.3924 39.4571 61.0258 38.8104 61.8258 38.3438C62.6391 37.8637 63.5591 37.6237 64.5858 37.6237C65.5991 37.6237 66.5058 37.8637 67.3058 38.3438C68.1191 38.8104 68.7591 39.4571 69.2258 40.2837C69.6925 41.0971 69.9258 42.0304 69.9258 43.0837C69.9258 44.1371 69.6925 45.0771 69.2258 45.9038C68.7591 46.7171 68.1191 47.3637 67.3058 47.8438C66.5058 48.3104 65.5991 48.5438 64.5858 48.5438ZM64.5858 46.6637C65.2124 46.6637 65.7724 46.5104 66.2658 46.2038C66.7591 45.8838 67.1458 45.4571 67.4258 44.9238C67.7058 44.3771 67.8391 43.7637 67.8258 43.0837C67.8391 42.3904 67.7058 41.7771 67.4258 41.2438C67.1458 40.6971 66.7591 40.2704 66.2658 39.9637C65.7724 39.6571 65.2124 39.5037 64.5858 39.5037C63.9591 39.5037 63.3924 39.6637 62.8858 39.9837C62.3924 40.2904 62.0058 40.7171 61.7258 41.2637C61.4458 41.7971 61.3124 42.4037 61.3258 43.0837C61.3124 43.7637 61.4458 44.3771 61.7258 44.9238C62.0058 45.4571 62.3924 45.8838 62.8858 46.2038C63.3924 46.5104 63.9591 46.6637 64.5858 46.6637Z" fill="#EE4444"/>
<path d="M72.2105 48.3438V33.5438H74.2705V48.3438H72.2105Z" fill="#EE4444"/>
<path d="M77.23 48.3438V33.5438H79.29V48.3438H77.23Z" fill="#EE4444"/>
<path d="M86.9142 48.5438C85.8342 48.5438 84.8742 48.3171 84.0342 47.8638C83.2076 47.3971 82.5542 46.7637 82.0742 45.9637C81.6076 45.1637 81.3742 44.2438 81.3742 43.2038C81.3742 42.3771 81.5075 41.6237 81.7742 40.9437C82.0409 40.2637 82.4076 39.6771 82.8742 39.1838C83.3542 38.6771 83.9209 38.2904 84.5742 38.0238C85.2409 37.7438 85.9609 37.6038 86.7342 37.6038C87.4142 37.6038 88.0475 37.7371 88.6342 38.0037C89.2209 38.2571 89.7276 38.6104 90.1542 39.0637C90.5942 39.5171 90.9276 40.0571 91.1542 40.6838C91.3942 41.2971 91.5076 41.9704 91.4942 42.7038L91.4742 43.5838H82.8942L82.4342 41.9437H89.6942L89.3942 42.2837V41.8037C89.3542 41.3637 89.2075 40.9704 88.9542 40.6237C88.7009 40.2771 88.3809 40.0037 87.9942 39.8037C87.6076 39.6037 87.1876 39.5037 86.7342 39.5037C86.0142 39.5037 85.4075 39.6437 84.9142 39.9237C84.4209 40.1904 84.0476 40.5904 83.7942 41.1237C83.5409 41.6437 83.4142 42.2904 83.4142 43.0638C83.4142 43.7971 83.5676 44.4371 83.8742 44.9837C84.1809 45.5171 84.6142 45.9304 85.1742 46.2238C85.7342 46.5171 86.3809 46.6637 87.1142 46.6637C87.6342 46.6637 88.1142 46.5771 88.5542 46.4038C89.0076 46.2304 89.4942 45.9171 90.0142 45.4637L91.0542 46.9238C90.7342 47.2438 90.3409 47.5237 89.8742 47.7637C89.4209 48.0037 88.9342 48.1971 88.4142 48.3438C87.9076 48.4771 87.4075 48.5438 86.9142 48.5438Z" fill="#EE4444"/>
<path d="M98.193 48.5438C97.2196 48.5438 96.3463 48.3037 95.573 47.8237C94.813 47.3437 94.2063 46.6904 93.753 45.8638C93.313 45.0371 93.093 44.1104 93.093 43.0837C93.093 42.0571 93.313 41.1304 93.753 40.3037C94.2063 39.4771 94.813 38.8237 95.573 38.3438C96.3463 37.8637 97.2196 37.6237 98.193 37.6237C99.1263 37.6237 99.973 37.8171 100.733 38.2037C101.506 38.5771 102.093 39.0904 102.493 39.7437L101.353 41.1437C101.14 40.8371 100.866 40.5571 100.533 40.3037C100.2 40.0504 99.8463 39.8504 99.473 39.7038C99.0996 39.5571 98.7396 39.4837 98.393 39.4837C97.753 39.4837 97.1796 39.6437 96.673 39.9637C96.1796 40.2704 95.7863 40.6971 95.493 41.2438C95.1996 41.7904 95.053 42.4037 95.053 43.0837C95.053 43.7637 95.2063 44.3771 95.513 44.9238C95.8196 45.4571 96.2263 45.8838 96.733 46.2038C97.2396 46.5238 97.7996 46.6838 98.413 46.6838C98.773 46.6838 99.1196 46.6237 99.453 46.5037C99.7996 46.3837 100.133 46.2037 100.453 45.9637C100.773 45.7237 101.073 45.4304 101.353 45.0838L102.493 46.4837C102.066 47.0837 101.453 47.5771 100.653 47.9637C99.8663 48.3504 99.0463 48.5438 98.193 48.5438Z" fill="#EE4444"/>
<path d="M105.736 48.3438V35.1637H107.796V48.3438H105.736ZM103.556 39.8438V37.8438H110.236V39.8438H103.556Z" fill="#EE4444"/>
<path d="M112.452 48.3438V37.8438H114.512V48.3438H112.452ZM113.452 35.5238C113.012 35.5238 112.672 35.4104 112.432 35.1837C112.192 34.9571 112.072 34.6371 112.072 34.2237C112.072 33.8371 112.192 33.5237 112.432 33.2837C112.685 33.0437 113.025 32.9237 113.452 32.9237C113.892 32.9237 114.232 33.0371 114.472 33.2638C114.712 33.4904 114.832 33.8104 114.832 34.2237C114.832 34.6104 114.705 34.9237 114.452 35.1637C114.212 35.4037 113.879 35.5238 113.452 35.5238Z" fill="#EE4444"/>
<path d="M122.398 48.5438C121.372 48.5438 120.452 48.3104 119.638 47.8438C118.838 47.3637 118.205 46.7171 117.738 45.9038C117.272 45.0771 117.038 44.1371 117.038 43.0837C117.038 42.0304 117.272 41.0971 117.738 40.2837C118.205 39.4571 118.838 38.8104 119.638 38.3438C120.452 37.8637 121.372 37.6237 122.398 37.6237C123.412 37.6237 124.318 37.8637 125.118 38.3438C125.932 38.8104 126.572 39.4571 127.038 40.2837C127.505 41.0971 127.738 42.0304 127.738 43.0837C127.738 44.1371 127.505 45.0771 127.038 45.9038C126.572 46.7171 125.932 47.3637 125.118 47.8438C124.318 48.3104 123.412 48.5438 122.398 48.5438ZM122.398 46.6637C123.025 46.6637 123.585 46.5104 124.078 46.2038C124.572 45.8838 124.958 45.4571 125.238 44.9238C125.518 44.3771 125.652 43.7637 125.638 43.0837C125.652 42.3904 125.518 41.7771 125.238 41.2438C124.958 40.6971 124.572 40.2704 124.078 39.9637C123.585 39.6571 123.025 39.5037 122.398 39.5037C121.772 39.5037 121.205 39.6637 120.698 39.9837C120.205 40.2904 119.818 40.7171 119.538 41.2637C119.258 41.7971 119.125 42.4037 119.138 43.0837C119.125 43.7637 119.258 44.3771 119.538 44.9238C119.818 45.4571 120.205 45.8838 120.698 46.2038C121.205 46.5104 121.772 46.6637 122.398 46.6637Z" fill="#EE4444"/>
<path d="M129.983 48.3438V37.8438H132.043V40.0037L131.683 40.2437C131.816 39.7771 132.076 39.3504 132.463 38.9637C132.85 38.5637 133.31 38.2437 133.843 38.0037C134.376 37.7504 134.923 37.6237 135.483 37.6237C136.283 37.6237 136.95 37.7838 137.483 38.1038C138.016 38.4104 138.416 38.8838 138.683 39.5238C138.95 40.1638 139.083 40.9704 139.083 41.9437V48.3438H137.023V42.0837C137.023 41.4837 136.943 40.9904 136.783 40.6037C136.623 40.2037 136.376 39.9171 136.043 39.7437C135.71 39.5571 135.296 39.4771 134.803 39.5037C134.403 39.5037 134.036 39.5704 133.703 39.7038C133.37 39.8238 133.076 39.9971 132.823 40.2238C132.583 40.4504 132.39 40.7171 132.243 41.0238C132.11 41.3171 132.043 41.6371 132.043 41.9837V48.3438H131.023C130.85 48.3438 130.676 48.3438 130.503 48.3438C130.33 48.3438 130.156 48.3438 129.983 48.3438Z" fill="#EE4444"/>
</svg>
